<svg width="20" height="20" viewBox="0 0 20 20" fill="none" xmlns="http://www.w3.org/2000/svg">
<path d="M9.40832 11.1668C9.48579 11.2449 9.57795 11.3069 9.6795 11.3492C9.78105 11.3915 9.88997 11.4133 9.99998 11.4133C10.11 11.4133 10.2189 11.3915 10.3205 11.3492C10.422 11.3069 10.5142 11.2449 10.5917 11.1668L14.4083 7.34176C14.4858 7.26365 14.578 7.20165 14.6795 7.15935C14.7811 7.11704 14.89 7.09526 15 7.09526C15.11 7.09526 15.2189 7.11704 15.3205 7.15935C15.422 7.20165 15.5142 7.26365 15.5917 7.34176C15.7469 7.49789 15.834 7.7091 15.834 7.92926C15.834 8.14941 15.7469 8.36062 15.5917 8.51676L11.7667 12.3418C11.2979 12.8099 10.6625 13.0729 9.99998 13.0729C9.33748 13.0729 8.70207 12.8099 8.23331 12.3418L4.40831 8.51676C4.25436 8.36154 4.16756 8.15204 4.16664 7.93342C4.16601 7.82375 4.18703 7.71503 4.2285 7.6135C4.26997 7.51197 4.33108 7.41962 4.40831 7.34176C4.48578 7.26365 4.57795 7.20165 4.6795 7.15935C4.78105 7.11704 4.88997 7.09526 4.99998 7.09526C5.10999 7.09526 5.21891 7.11704 5.32046 7.15935C5.42201 7.20165 5.51418 7.26365 5.59164 7.34176L9.40832 11.1668Z" fill="#4F2EE8"/>
</svg>
